<svg xmlns="http://www.w3.org/2000/svg" viewBox="0 0 512 512" fill="none">
  <!-- Círculo central -->
  <circle cx="256" cy="256" r="120" stroke="#f0f0f0" stroke-width="16" fill="none"/>

  <!-- Lâmpada no centro -->
  <path d="M256 180c-26.5 0-48 21.5-48 48 0 16.7 8.6 31.4 21.6 40v20c0 6.6 5.4 12 12 12h28.8c6.6 0 12-5.4 12-12v-20c13-8.6 21.6-23.3 21.6-40 0-26.5-21.5-48-48-48zm0 72c-13.3 0-24-10.7-24-24s10.7-24 24-24 24 10.7 24 24-10.7 24-24 24z" fill="#f0f0f0"/>
  <rect x="241.6" y="300" width="28.8" height="12" rx="4" fill="#f0f0f0"/>
  <path d="M256 312v16c0 8.8-7.2 16-16 16h0c-8.8 0-16 7.2-16 16v8c0 4.4 3.6 8 8 8h48c4.4 0 8-3.6 8-8v-8c0-8.8-7.2-16-16-16h0c-8.8 0-16-7.2-16-16v-16" stroke="#f0f0f0" stroke-width="8" fill="none"/>

  <!-- Nós ao redor -->
  <!-- Nó superior -->
  <circle cx="256" cy="96" r="20" fill="#f0f0f0"/>
  <line x1="256" y1="116" x2="256" y2="136" stroke="#f0f0f0" stroke-width="12"/>

  <!-- Nó inferior -->
  <circle cx="256" cy="416" r="20" fill="#f0f0f0"/>
  <line x1="256" y1="376" x2="256" y2="396" stroke="#f0f0f0" stroke-width="12"/>

  <!-- Nó esquerdo -->
  <circle cx="96" cy="256" r="20" fill="#f0f0f0"/>
  <line x1="116" y1="256" x2="136" y2="256" stroke="#f0f0f0" stroke-width="12"/>

  <!-- Nó direito -->
  <circle cx="416" cy="256" r="20" fill="#f0f0f0"/>
  <line x1="376" y1="256" x2="396" y2="256" stroke="#f0f0f0" stroke-width="12"/>

  <!-- Nó superior esquerdo -->
  <circle cx="156" cy="156" r="24" fill="#f0f0f0"/>
  <line x1="176" y1="176" x2="196" y2="196" stroke="#f0f0f0" stroke-width="12"/>

  <!-- Nó superior direito -->
  <circle cx="356" cy="156" r="28" fill="#f0f0f0"/>
  <line x1="336" y1="176" x2="316" y2="196" stroke="#f0f0f0" stroke-width="12"/>

  <!-- Nó inferior esquerdo -->
  <circle cx="156" cy="356" r="28" fill="#f0f0f0"/>
  <line x1="176" y1="336" x2="196" y2="316" stroke="#f0f0f0" stroke-width="12"/>

  <!-- Nó inferior direito -->
  <circle cx="356" cy="356" r="24" fill="#f0f0f0"/>
  <line x1="336" y1="336" x2="316" y2="316" stroke="#f0f0f0" stroke-width="12"/>
</svg>
